<svg width="280" height="175" viewBox="0 0 280 175" fill="none" xmlns="http://www.w3.org/2000/svg">
<g clip-path="url(#clip0_13_16)">
<g clip-path="url(#clip1_13_16)">
<g clip-path="url(#clip2_13_16)">
<g clip-path="url(#clip3_13_16)">
<g clip-path="url(#clip4_13_16)">
<g clip-path="url(#clip5_13_16)">
<g clip-path="url(#clip6_13_16)">
<g clip-path="url(#clip7_13_16)">
<g clip-path="url(#clip8_13_16)">
<g clip-path="url(#clip9_13_16)">
<g clip-path="url(#clip10_13_16)">
<path d="M56.8979 94.1339L53.5258 79.9656H55.6511L58.5131 92.292H58.9664L62.3385 80.249H64.5487L67.9208 92.292H68.4025L71.2361 79.9656H73.3614L69.9893 94.1339H66.4473L63.4436 83.0543L60.4399 94.1339H56.8979ZM85.7728 92.377L86.5945 92.292L86.6512 93.9639C84.4976 94.2661 82.6557 94.4173 81.1256 94.4173C79.0854 94.4173 77.6402 93.826 76.7901 92.6434C75.94 91.4646 75.5149 89.6284 75.5149 87.1348C75.5149 82.1664 77.4891 79.6823 81.4373 79.6823C83.3453 79.6823 84.7715 80.215 85.7161 81.2805C86.6606 82.3497 87.1329 84.0272 87.1329 86.313L87.0196 87.9282H77.6685C77.6685 89.4962 77.9519 90.658 78.5186 91.4136C79.0854 92.1692 80.0715 92.5471 81.4769 92.5471C82.8862 92.5471 84.3182 92.4904 85.7728 92.377ZM77.6402 86.228H85.0077C85.0077 84.49 84.7281 83.2621 84.1689 82.5443C83.6135 81.8264 82.7068 81.4675 81.4486 81.4675C80.1943 81.4675 79.2497 81.8453 78.615 82.6009C77.984 83.3566 77.6591 84.5656 77.6402 86.228ZM100.445 84.2445V91.4986C100.506 92.1976 101.056 92.6132 102.095 92.7454L102.004 94.4173C100.515 94.4173 99.3932 94.0394 98.6375 93.2838C96.9373 94.0394 95.2371 94.4173 93.537 94.4173C92.2335 94.4173 91.2417 94.0489 90.5616 93.3121C89.8778 92.5754 89.5358 91.5175 89.5358 90.1384C89.5358 88.7594 89.8872 87.7431 90.59 87.0894C91.2889 86.4396 92.3846 86.0391 93.877 85.888L98.3202 85.4629V84.2445C98.3202 83.281 98.1142 82.5915 97.7024 82.1759C97.2868 81.7603 96.7201 81.5525 96.0022 81.5525C94.491 81.5525 92.923 81.6469 91.2984 81.8359L90.4199 81.9209L90.3349 80.3057C92.4129 79.8901 94.2548 79.6823 95.8605 79.6823C97.4663 79.6823 98.6319 80.0507 99.3573 80.7874C100.083 81.5242 100.445 82.6765 100.445 84.2445ZM91.7234 90.0251C91.7234 91.7631 92.4413 92.6321 93.877 92.6321C95.1616 92.6321 96.4273 92.4148 97.6741 91.9803L98.3202 91.7536V87.0781L94.132 87.4748C93.2819 87.5504 92.668 87.796 92.2901 88.2116C91.9123 88.6272 91.7234 89.2317 91.7234 90.0251ZM111.978 79.9656V81.8075H107.473V88.5799C107.473 90.2046 107.592 91.2719 107.83 91.782C108.064 92.292 108.625 92.5471 109.513 92.5471L112.035 92.377L112.177 94.1339C110.911 94.3417 109.948 94.4456 109.286 94.4456C107.813 94.4456 106.793 94.0867 106.226 93.3688C105.659 92.651 105.376 91.2814 105.376 89.26V81.8075H103.364V79.9656H105.376V75.6302H107.473V79.9656H111.978ZM116.711 82.4309V94.1339H114.585V73.7883H116.711V80.7591C118.222 80.0412 119.676 79.6823 121.074 79.6823C122.963 79.6823 124.235 80.1923 124.888 81.2125C125.538 82.2326 125.863 84.0461 125.863 86.6531V94.1339H123.738V86.7097C123.738 84.7451 123.545 83.3981 123.16 82.669C122.771 81.9435 121.953 81.5808 120.706 81.5808C119.516 81.5808 118.364 81.7981 117.249 82.2326L116.711 82.4309ZM139.436 92.377L140.258 92.292L140.315 93.9639C138.161 94.2661 136.319 94.4173 134.789 94.4173C132.749 94.4173 131.304 93.826 130.454 92.6434C129.604 91.4646 129.179 89.6284 129.179 87.1348C129.179 82.1664 131.153 79.6823 135.101 79.6823C137.009 79.6823 138.435 80.215 139.38 81.2805C140.324 82.3497 140.797 84.0272 140.797 86.313L140.683 87.9282H131.332C131.332 89.4962 131.616 90.658 132.182 91.4136C132.749 92.1692 133.735 92.5471 135.141 92.5471C136.55 92.5471 137.982 92.4904 139.436 92.377ZM131.304 86.228H138.671C138.671 84.49 138.392 83.2621 137.833 82.5443C137.277 81.8264 136.37 81.4675 135.112 81.4675C133.858 81.4675 132.913 81.8453 132.279 82.6009C131.648 83.3566 131.323 84.5656 131.304 86.228ZM146.237 94.1339H144.112V79.9656H146.209V81.8925C147.852 80.7591 149.581 80.0129 151.394 79.6539V81.8075C150.601 81.9586 149.774 82.1948 148.912 82.5159C148.054 82.8371 147.399 83.1204 146.946 83.366L146.237 83.7344V94.1339ZM156.206 94.1339H154.081V73.7883H156.206V94.1339ZM159.833 87.0214C159.833 84.4334 160.296 82.5632 161.222 81.4108C162.147 80.2585 163.711 79.6823 165.914 79.6823C168.113 79.6823 169.671 80.2585 170.59 81.4108C171.504 82.5632 171.961 84.4334 171.961 87.0214C171.961 89.6095 171.527 91.4892 170.658 92.6604C169.789 93.8316 168.202 94.4173 165.897 94.4173C163.592 94.4173 162.005 93.8316 161.136 92.6604C160.268 91.4892 159.833 89.6095 159.833 87.0214ZM162.015 86.9761C162.015 89.0465 162.266 90.4974 162.769 91.3286C163.267 92.1598 164.316 92.5754 165.914 92.5754C167.508 92.5754 168.551 92.1636 169.042 91.3399C169.534 90.52 169.779 89.0711 169.779 86.9931C169.779 84.9151 169.505 83.4832 168.957 82.6973C168.41 81.9152 167.395 81.5242 165.914 81.5242C164.429 81.5242 163.409 81.9152 162.854 82.6973C162.295 83.4832 162.015 84.9094 162.015 86.9761ZM180.887 100.793C178.62 100.793 177.037 100.487 176.138 99.8749C175.242 99.259 174.795 98.1388 174.795 96.5142C174.795 95.7396 174.965 95.1124 175.305 94.6326C175.645 94.149 176.221 93.6049 177.033 93.0004C176.504 92.6415 176.24 91.9898 176.24 91.0452C176.24 90.7241 176.476 90.129 176.948 89.26L177.203 88.8066C175.711 88.1266 174.965 86.7003 174.965 84.5278C174.965 81.2975 176.731 79.6823 180.264 79.6823C181.17 79.6823 182.011 79.7767 182.786 79.9656L183.211 80.0507L187.404 79.9373V81.7508L184.712 81.6942C185.336 82.3176 185.648 83.2621 185.648 84.5278C185.648 86.3036 185.207 87.5447 184.327 88.2512C183.451 88.9615 182.068 89.3167 180.179 89.3167C179.669 89.3167 179.206 89.2789 178.79 89.2033C178.45 90.0345 178.28 90.5729 178.28 90.8185C178.28 91.4041 178.46 91.7669 178.818 91.9066C179.177 92.0502 180.264 92.122 182.077 92.122C183.891 92.122 185.194 92.4054 185.988 92.9721C186.781 93.5388 187.178 94.644 187.178 96.2875C187.178 99.2911 185.081 100.793 180.887 100.793ZM176.892 96.3441C176.892 97.3454 177.169 98.0406 177.725 98.4297C178.284 98.8151 179.313 99.0078 180.813 99.0078C182.317 99.0078 183.394 98.8 184.044 98.3844C184.697 97.9688 185.024 97.2755 185.024 96.3045C185.024 95.3297 184.788 94.7006 184.316 94.4173C183.843 94.1339 182.918 93.9922 181.539 93.9922L178.478 93.8505C177.855 94.3039 177.434 94.7006 177.215 95.0407C176.999 95.3807 176.892 95.8152 176.892 96.3441ZM177.09 84.5278C177.09 85.6424 177.339 86.4358 177.838 86.9081C178.341 87.3804 179.168 87.6165 180.32 87.6165C181.473 87.6165 182.294 87.3804 182.786 86.9081C183.277 86.4358 183.522 85.6367 183.522 84.5108C183.522 83.3887 183.277 82.5915 182.786 82.1192C182.294 81.6469 181.473 81.4108 180.32 81.4108C179.168 81.4108 178.341 81.6507 177.838 82.1306C177.339 82.6142 177.09 83.4133 177.09 84.5278ZM195.452 100.793C193.185 100.793 191.602 100.487 190.703 99.8749C189.807 99.259 189.36 98.1388 189.36 96.5142C189.36 95.7396 189.53 95.1124 189.87 94.6326C190.21 94.149 190.786 93.6049 191.598 93.0004C191.069 92.6415 190.805 91.9898 190.805 91.0452C190.805 90.7241 191.041 90.129 191.513 89.26L191.768 88.8066C190.276 88.1266 189.53 86.7003 189.53 84.5278C189.53 81.2975 191.296 79.6823 194.829 79.6823C195.735 79.6823 196.576 79.7767 197.351 79.9656L197.776 80.0507L201.969 79.9373V81.7508L199.277 81.6942C199.901 82.3176 200.213 83.2621 200.213 84.5278C200.213 86.3036 199.772 87.5447 198.892 88.2512C198.016 88.9615 196.633 89.3167 194.744 89.3167C194.234 89.3167 193.771 89.2789 193.355 89.2033C193.015 90.0345 192.845 90.5729 192.845 90.8185C192.845 91.4041 193.024 91.7669 193.383 91.9066C193.742 92.0502 194.829 92.122 196.642 92.122C198.456 92.122 199.759 92.4054 200.553 92.9721C201.346 93.5388 201.743 94.644 201.743 96.2875C201.743 99.2911 199.646 100.793 195.452 100.793ZM191.457 96.3441C191.457 97.3454 191.734 98.0406 192.29 98.4297C192.849 98.8151 193.878 99.0078 195.378 99.0078C196.882 99.0078 197.959 98.8 198.609 98.3844C199.262 97.9688 199.589 97.2755 199.589 96.3045C199.589 95.3297 199.353 94.7006 198.881 94.4173C198.408 94.1339 197.483 93.9922 196.104 93.9922L193.043 93.8505C192.42 94.3039 191.999 94.7006 191.78 95.0407C191.564 95.3807 191.457 95.8152 191.457 96.3441ZM191.655 84.5278C191.655 85.6424 191.904 86.4358 192.403 86.9081C192.905 87.3804 193.733 87.6165 194.885 87.6165C196.038 87.6165 196.859 87.3804 197.351 86.9081C197.842 86.4358 198.087 85.6367 198.087 84.5108C198.087 83.3887 197.842 82.5915 197.351 82.1192C196.859 81.6469 196.038 81.4108 194.885 81.4108C193.733 81.4108 192.905 81.6507 192.403 82.1306C191.904 82.6142 191.655 83.4133 191.655 84.5278ZM214.177 92.377L214.999 92.292L215.055 93.9639C212.902 94.2661 211.06 94.4173 209.53 94.4173C207.489 94.4173 206.044 93.826 205.194 92.6434C204.344 91.4646 203.919 89.6284 203.919 87.1348C203.919 82.1664 205.893 79.6823 209.841 79.6823C211.749 79.6823 213.176 80.215 214.12 81.2805C215.065 82.3497 215.537 84.0272 215.537 86.313L215.424 87.9282H206.073C206.073 89.4962 206.356 90.658 206.923 91.4136C207.489 92.1692 208.477 92.5471 209.887 92.5471C211.292 92.5471 212.722 92.4904 214.177 92.377ZM206.044 86.228H213.412C213.412 84.49 213.134 83.2621 212.579 82.5443C212.019 81.8264 211.113 81.4675 209.858 81.4675C208.6 81.4675 207.656 81.8453 207.025 82.6009C206.39 83.3566 206.063 84.5656 206.044 86.228ZM220.977 94.1339H218.852V79.9656H220.949V81.8925C222.593 80.7591 224.321 80.0129 226.135 79.6539V81.8075C225.341 81.9586 224.516 82.1948 223.658 82.5159C222.797 82.8371 222.139 83.1204 221.686 83.366L220.977 83.7344V94.1339Z" fill="white"/>
</g>
</g>
</g>
</g>
</g>
</g>
</g>
<path d="M172.791 107.168C167.918 127.759 155.652 145.842 138.322 157.982C120.993 170.123 99.8078 175.475 78.7915 173.022C57.7753 170.569 38.3921 160.482 24.3244 144.677C10.2568 128.871 2.48467 108.45 2.48467 87.2906C2.48467 66.1317 10.2568 45.7098 24.3244 29.9047C38.3921 14.0996 57.7753 4.01238 78.7915 1.55941C99.8078 -0.893551 120.993 4.45862 138.322 16.5992C155.652 28.7397 167.918 46.8227 172.791 67.4129H170.356C165.495 47.4851 153.5 30.0293 136.64 18.3468C119.78 6.66417 99.223 1.5647 78.8575 4.01273C58.492 6.46076 39.7294 16.2866 26.1181 31.632C12.5069 46.9774 4.99051 66.7785 4.99051 87.2906C4.99051 107.803 12.5069 127.604 26.1181 142.949C39.7294 158.295 58.492 168.12 78.8575 170.569C99.223 173.017 119.78 167.917 136.64 156.234C153.5 144.552 165.495 127.096 170.356 107.168H172.791Z" fill="white"/>
</g>
</g>
</g>
</g>
<defs>
<clipPath id="clip0_13_16">
<rect width="280" height="174.44" fill="white"/>
</clipPath>
<clipPath id="clip1_13_16">
<rect width="280" height="174.44" fill="white" transform="translate(-0.169697 0.0706253)"/>
</clipPath>
<clipPath id="clip2_13_16">
<rect width="279.33" height="174.581" fill="white" transform="translate(0.165312 3.8147e-06)"/>
</clipPath>
<clipPath id="clip3_13_16">
<rect width="279.33" height="174.581" fill="white" transform="translate(0.165312 3.8147e-06)"/>
</clipPath>
<clipPath id="clip4_13_16">
<rect width="172.626" height="27.0047" fill="white" transform="translate(53.5173 73.7883)"/>
</clipPath>
<clipPath id="clip5_13_16">
<rect width="172.626" height="27.0047" fill="white" transform="translate(53.5173 73.7883)"/>
</clipPath>
<clipPath id="clip6_13_16">
<rect width="172.626" height="27.0047" fill="white" transform="translate(53.5173 73.7883)"/>
</clipPath>
<clipPath id="clip7_13_16">
<rect width="172.626" height="27.0047" fill="white" transform="translate(53.5173 73.7883)"/>
</clipPath>
<clipPath id="clip8_13_16">
<rect width="172.626" height="27.0047" fill="white" transform="translate(53.5173 73.7883)"/>
</clipPath>
<clipPath id="clip9_13_16">
<rect width="172.626" height="27.0047" fill="white" transform="translate(53.5173 73.7883)"/>
</clipPath>
<clipPath id="clip10_13_16">
<rect width="172.626" height="27.0047" fill="white" transform="translate(53.5173 73.7883)"/>
</clipPath>
</defs>
</svg>
